<svg width="349" height="349" viewBox="0 0 349 349" fill="none" xmlns="http://www.w3.org/2000/svg">
<g id="australia 1" clip-path="url(#clip0)">
<path id="Vector" d="M260.116 267.067C243.658 267.067 227.592 260.618 215.727 249.182C206.198 239.998 197.158 230.202 188.414 220.729C186.406 218.551 184.396 216.375 182.38 214.205C175.766 207.08 167.201 203.421 156.199 203.014C144.259 202.572 133.614 207.844 126.784 212.347L85.596 239.748C75.9173 246.189 63.9887 247.933 52.8722 244.533C41.7956 241.143 32.9077 233.075 28.4717 222.382L5.05379 169.055C-5.5169 144.612 0.460731 124.037 23.3089 106.112C23.3089 106.112 93.7011 37.419 93.7517 37.3684C99.314 32.1683 105.406 27.0693 113.351 26.8297C121.361 26.5927 127.674 31.3508 133.457 36.2474C134.325 36.985 135.196 37.0675 135.771 37.009C136.317 36.953 137.102 36.7134 137.752 35.8853C143.911 28.0199 147.803 22.1115 150.929 17.3613C156.276 9.24027 160.139 3.37181 168.279 1.00472C174.944 -0.931018 182.372 0.163328 197.171 2.34669C200.598 2.8526 204.467 3.42506 208.858 4.03747C212.087 4.49012 214.907 6.45515 216.446 9.32814C217.988 12.2011 218.065 15.6359 216.657 18.5755C213.387 25.3919 211.046 30.6799 208.307 35.8614C206.949 38.4335 207.385 39.2056 207.83 39.645L236.93 63.3451C239.467 64.6924 242.159 64.2345 243.754 63.3878C245.807 62.2961 246.039 60.7278 246.081 60.0195L245.919 22.9875C245.9 18.5196 248.787 14.5576 253.044 13.2049C257.302 11.8523 261.943 13.4233 264.507 17.0844C264.507 17.0844 336.002 119.253 336.092 119.399C352.1 144.952 351.796 158.444 342.916 183.635C335.022 206.031 321.541 227.923 302.849 248.705C292.736 259.949 278.355 266.457 262.358 267.027C261.61 267.053 260.862 267.067 260.116 267.067V267.067ZM154.809 182.554C155.528 182.554 156.241 182.568 156.955 182.594C173.418 183.204 187.011 189.16 197.355 200.301C199.384 202.487 201.408 204.678 203.431 206.87C211.976 216.128 220.808 225.7 229.909 234.47C238.341 242.599 249.886 247.025 261.629 246.607C272.037 246.234 281.282 242.126 287.656 235.04C304.54 216.266 316.647 196.688 323.644 176.843C331.145 155.563 330.498 149 318.913 130.468L266.493 55.5622C266.493 55.5622 266.509 60.4615 266.507 60.6026C266.176 69.4373 261.256 77.2228 253.34 81.4298C244.673 86.0362 234.078 85.6581 225.691 80.4366C225.323 80.2077 224.972 79.9574 224.637 79.6858C224.637 79.6858 194.413 55.0643 194.285 54.9498C186.273 47.7208 184.724 36.7454 190.243 26.3078C190.927 25.0138 191.598 23.6771 192.283 22.2819C183.238 20.9506 176.214 19.976 173.98 20.6257C173.066 20.892 170.372 24.9871 167.994 28.5977C164.836 33.3931 160.515 39.9592 153.834 48.4849C149.87 53.544 144.193 56.6885 137.845 57.3356C131.457 57.9879 125.205 56.0362 120.25 51.8399C116.344 48.5302 114.624 47.5903 113.956 47.324C113.295 47.6223 111.599 48.658 107.786 52.218L37.1732 121.132C36.8963 121.401 36.6034 121.657 36.2972 121.894C20.4625 134.166 16.9558 145.099 23.7855 160.891C23.7855 160.891 47.2886 214.415 47.3206 214.49C49.4027 219.56 53.6044 223.389 58.8471 224.991C64.0925 226.597 69.716 225.774 74.2771 222.736L115.503 195.308C128.209 186.934 141.74 182.554 154.809 182.554V182.554Z" fill="#1E1E1E"/>
<path id="Vector_2" d="M266.512 348.797C245.12 348.797 231.205 319.502 227.075 299.815C226.442 296.801 227.2 293.664 229.141 291.276C231.08 288.887 233.996 287.497 237.074 287.497H295.953C299.031 287.497 301.944 288.887 303.885 291.276C305.826 293.664 306.585 296.801 305.951 299.815C301.819 319.505 287.904 348.797 266.512 348.797V348.797ZM250.824 307.93C252.461 312.044 254.415 315.934 256.54 319.236C260.596 325.541 264.47 328.364 266.512 328.364C268.554 328.364 272.431 325.541 276.486 319.236C278.611 315.937 280.565 312.044 282.203 307.93H250.824Z" fill="#1E1E1E"/>
</g>
<defs>
<clipPath id="clip0">
<rect width="349" height="349" fill="white"/>
</clipPath>
</defs>
</svg>
